<svg width="328" height="343" viewBox="0 0 328 343" fill="none" xmlns="http://www.w3.org/2000/svg">
<rect width="160.252" height="150.433" rx="15" transform="matrix(0.835813 0.549014 -0.549051 0.835789 154.756 50.9114)" fill="#686767"/>
<rect width="160.252" height="3.27028" transform="matrix(0.835813 0.549014 -0.549051 0.835789 132.311 85.076)" fill="#595959"/>
<rect width="160.252" height="3.27027" transform="matrix(0.835813 0.549015 -0.549051 0.835789 123.334 98.7424)" fill="#595959"/>
<ellipse cx="3.27046" cy="3.2703" rx="3.27046" ry="3.2703" transform="matrix(0.835813 0.549015 -0.549051 0.835789 144.492 75.4697)" fill="#7D7D7D"/>
<ellipse cx="3.2704" cy="3.27026" rx="3.2704" ry="3.27026" transform="matrix(0.835811 0.549017 -0.549049 0.835791 262.031 152.677)" fill="#7D7D7D"/>
<ellipse cx="3.27043" cy="3.27026" rx="3.27043" ry="3.27026" transform="matrix(0.835813 0.549015 -0.549051 0.835789 123.843 106.902)" fill="#7D7D7D"/>
<ellipse cx="3.27046" cy="3.2703" rx="3.27046" ry="3.2703" transform="matrix(0.835813 0.549015 -0.549051 0.835789 241.382 184.11)" fill="#7D7D7D"/>
<rect width="31.0692" height="83.392" rx="10" transform="matrix(0.999318 -0.0369264 0.0368827 0.99932 200.441 170.835)" fill="#D6D6D6"/>
<ellipse cx="10.6289" cy="10.6284" rx="10.6289" ry="10.6284" transform="matrix(0.999318 -0.0369266 0.0368825 0.99932 214.292 235.774)" fill="url(#paint0_radial_3_115)"/>
<rect width="31.0692" height="83.392" rx="10" transform="matrix(-0.294269 -0.955723 -0.95571 0.29431 150.302 140.126)" fill="#D6D6D6"/>
<ellipse cx="10.6289" cy="10.6284" rx="10.6289" ry="10.6284" transform="matrix(-0.294269 -0.955723 -0.95571 0.294311 85.3835 148.662)" fill="url(#paint1_radial_3_115)"/>
<path d="M171.824 239.181L102.12 193.396L62.7218 253.369C59.6894 257.985 60.9733 264.185 65.5894 267.217L75.5245 273.743C80.1406 276.775 86.3409 275.492 89.3732 270.876L108.01 242.506C110.799 238.26 116.502 237.079 120.748 239.868C124.994 242.657 126.175 248.36 123.386 252.605L104.749 280.975C101.717 285.591 103.001 291.791 107.617 294.823L118.577 302.023C123.193 305.055 129.393 303.771 132.425 299.155L171.824 239.181Z" fill="#D6D6D6"/>
<rect width="106.289" height="103.014" transform="matrix(0.835813 0.549014 -0.549051 0.835789 147.317 103.747)" fill="#E1E1E1"/>
<rect width="99.7485" height="29.4325" transform="matrix(0.835813 0.549014 -0.549051 0.835789 102.468 177.974)" fill="#E1E1E1"/>
<rect width="8.17611" height="103.014" transform="matrix(0.835813 0.549015 -0.549051 0.835789 160.984 112.725)" fill="url(#paint2_linear_3_115)"/>
<rect width="8.17612" height="103.014" transform="matrix(0.835813 0.549014 -0.549052 0.835788 212.921 146.84)" fill="url(#paint3_linear_3_115)"/>
<rect width="106.289" height="3.27027" transform="matrix(0.835813 0.549014 -0.549051 0.835789 92.5529 187.112)" fill="#9A9A9A"/>
<rect width="11.4466" height="26.1622" rx="5.72329" transform="matrix(0.835814 0.549014 -0.549052 0.835788 258.6 127.936)" fill="#D6D6D6"/>
<rect width="11.4465" height="26.1622" rx="5.72327" transform="matrix(0.835813 0.549015 -0.549051 0.835789 160.194 63.2968)" fill="#D6D6D6"/>
<path d="M255.309 141.425C237.535 168.481 201.191 176.006 174.132 158.233C147.074 140.459 139.547 104.117 157.321 77.0607C175.095 50.0044 211.439 42.4794 238.497 60.2531C265.556 78.0268 273.082 114.369 255.309 141.425Z" fill="#D6D6D6" stroke="#E1E1E1" stroke-width="0.5"/>
<path fill-rule="evenodd" clip-rule="evenodd" d="M254.545 142.88C236.112 167.848 201.149 174.322 174.893 157.075C148.636 139.828 140.693 105.171 156.289 78.3388C155.645 79.2111 155.021 80.1059 154.419 81.0231C136.569 108.195 144.128 144.692 171.302 162.541C198.475 180.391 234.974 172.834 252.824 145.662C253.427 144.745 254 143.817 254.545 142.88Z" fill="#DDDDDD"/>
<path fill-rule="evenodd" clip-rule="evenodd" d="M250.954 148.346C232.521 173.315 197.558 179.788 171.302 162.541C145.045 145.294 137.102 110.638 152.698 83.8057C152.054 84.6779 151.43 85.5727 150.828 86.4899C132.978 113.662 140.537 150.158 167.71 168.008C194.884 185.857 231.383 178.3 249.233 151.129C249.835 150.211 250.409 149.284 250.954 148.346Z" fill="#D6D6D6"/>
<path d="M261.157 121.79C252.387 99.4008 207.499 67.9591 178.878 60.8972C157.446 77.1422 146.137 101.533 155.971 127.039C161.432 141.201 169.001 148.081 182.02 155.887C191.651 161.662 198.071 164.61 209.294 164.999C235.641 165.912 257.861 137.232 261.157 121.79Z" fill="black"/>
<rect x="189.482" y="173.255" width="3.27044" height="1.63515" rx="0.817574" transform="rotate(13.3007 189.482 173.255)" fill="#C4C4C4"/>
<rect width="1.63528" height="1.63508" rx="0.817539" transform="matrix(0.973176 0.230061 -0.230062 0.973176 196.744 174.113)" fill="#C4C4C4"/>
<mask id="mask0_3_115" style="mask-type:alpha" maskUnits="userSpaceOnUse" x="152" y="60" width="110" height="106">
<path d="M261.157 121.792C252.387 99.402 207.499 67.9604 178.878 60.8984C157.446 77.1435 146.137 101.534 155.971 127.04C161.432 141.202 169.001 148.083 182.02 155.888C191.651 161.663 198.071 164.611 209.294 165C235.641 165.914 257.861 137.233 261.157 121.792Z" fill="black"/>
</mask>
<g mask="url(#mask0_3_115)">
<rect width="16.3516" height="90.6049" transform="matrix(0.369765 0.929126 -0.929149 0.369707 222.761 66.331)" fill="#484848"/>
<rect width="9.22658" height="95.5158" transform="matrix(0.369764 0.929126 -0.929149 0.369707 239.674 88.5317)" fill="#484848"/>
</g>
<ellipse cx="10.6289" cy="10.6284" rx="10.6289" ry="10.6284" transform="matrix(0.835813 0.549015 -0.549051 0.835789 180.186 68.6036)" fill="#828282" fill-opacity="0.5"/>
<ellipse cx="5.72329" cy="5.72298" rx="5.72329" ry="5.72298" transform="matrix(0.835814 0.549013 -0.549053 0.835788 193.853 77.5813)" fill="#828282" fill-opacity="0.5"/>
<ellipse cx="4.08804" cy="4.08785" rx="4.08804" ry="4.08785" transform="matrix(0.835812 0.549016 -0.54905 0.83579 171.208 82.2699)" fill="#828282" fill-opacity="0.5"/>
<ellipse cx="4.08805" cy="4.08785" rx="4.08805" ry="4.08785" transform="matrix(0.835813 0.549015 -0.549051 0.835789 201.853 53.4907)" fill="#BC0D0D"/>
<ellipse cx="4.08808" cy="4.08786" rx="4.08808" ry="4.08786" transform="matrix(0.835814 0.549013 -0.549053 0.835788 220.478 57.8994)" fill="#BC0D0D"/>
<rect width="44.151" height="22.8919" rx="5" transform="matrix(0.835813 0.549015 -0.549051 0.835789 143.19 163.639)" fill="#273AE7"/>
<path d="M164.629 181.634L153.672 182.996L159.7 185.733L144.717 188.118" stroke="#D2CB15"/>
<defs>
<radialGradient id="paint0_radial_3_115" cx="0" cy="0" r="1" gradientUnits="userSpaceOnUse" gradientTransform="translate(13.0818 13.0811) rotate(-156.802) scale(6.22669 6.22647)">
<stop stop-color="white"/>
<stop offset="1" stop-color="#DDDDDD"/>
</radialGradient>
<radialGradient id="paint1_radial_3_115" cx="0" cy="0" r="1" gradientUnits="userSpaceOnUse" gradientTransform="translate(13.0818 13.0811) rotate(-156.802) scale(6.22669 6.22647)">
<stop stop-color="white"/>
<stop offset="1" stop-color="#DDDDDD"/>
</radialGradient>
<linearGradient id="paint2_linear_3_115" x1="4.08805" y1="0" x2="4.08805" y2="103.014" gradientUnits="userSpaceOnUse">
<stop stop-color="#3BB094"/>
<stop offset="1" stop-color="#232030"/>
</linearGradient>
<linearGradient id="paint3_linear_3_115" x1="4.08806" y1="0" x2="4.08806" y2="103.014" gradientUnits="userSpaceOnUse">
<stop stop-color="#3BB094"/>
<stop offset="1" stop-color="#232030"/>
</linearGradient>
</defs>
</svg>
