<svg width="154" height="152" viewBox="0 0 154 152" fill="none" xmlns="http://www.w3.org/2000/svg">
<g clip-path="url(#clip0_3_91)">
<path d="M70.191 0.375941C10.9257 5.95926 -20.976 76.1114 18.2821 124.013C36.4243 146.233 66.72 157.224 96.5806 149.58C112.578 145.481 126.41 136.384 136.263 124.548C179.293 73.1343 138.76 -6.1242 70.191 0.375941Z" fill="url(#paint0_radial_3_91)"/>
<path d="M77.3919 131.028C56.5558 131.028 38.4033 119.552 29.0058 102.606C8.27329 65.2433 36.8698 19.8865 78.6145 21.2154C105.17 21.7511 127.602 41.2103 131.881 67.0872C137.496 100.484 111.542 131.028 77.3919 131.028Z" fill="url(#paint1_radial_3_91)"/>
<g opacity="0.75">
<path d="M99.3263 84.991C97.0365 84.4244 96.4045 87.2573 97.6996 87.896C98.9948 88.545 102.248 90.4816 102.901 89.1837C103.554 87.896 101.927 85.64 99.3263 84.991Z" fill="#056DB1"/>
<path d="M122.069 61.0919C119.851 61.5967 117.199 62.7092 119.468 64.3265C121.748 65.9438 125.312 65.2948 125.643 63.3582C125.964 61.4112 126.296 60.1236 122.069 61.0919Z" fill="#056DB1"/>
<path d="M77.5577 113.093C72.7916 110.25 65.86 109.22 65.2073 112.125C64.5546 115.03 69.1031 119.552 74.6255 118.903C80.1583 118.264 80.8111 115.03 77.5577 113.093Z" fill="#056DB1"/>
<path d="M93.0994 128.772C88.7995 130.039 84.2821 130.801 79.6093 130.976C80.6764 124.249 87.1107 126.371 90.5505 127.299C91.5556 127.577 92.3948 128.123 93.0994 128.772Z" fill="#056DB1"/>
<path d="M47.3448 112.774C49.4481 113.691 50.9194 109.22 47.9975 105.346C45.0757 101.473 43.7702 96.6212 40.1957 95.6529C36.6211 94.6846 34.6732 107.283 47.3448 112.774Z" fill="#056DB1"/>
<path d="M33.0465 96.9405C31.8965 97.1466 31.4199 99.5262 34.0205 99.8455C36.6211 100.175 36.6211 96.3018 33.0465 96.9405Z" fill="#056DB1"/>
<path d="M61.9642 83.7034C59.6744 83.4974 57.4157 84.6717 57.7369 87.2574C58.0581 89.843 61.6327 87.2574 63.2594 87.2574C64.8861 87.2574 65.5388 84.0228 61.9642 83.7034Z" fill="#056DB1"/>
<path d="M84.3856 53.6647C82.417 52.7375 82.1062 56.8993 83.7329 57.538C85.3596 58.187 89.9081 56.24 84.3856 53.6647Z" fill="#056DB1"/>
</g>
<path d="M63.5909 74.6589C52.546 76.5955 50.9193 76.9149 40.8484 85.3208C34.1862 90.8732 27.2339 89.0807 23.2967 87.2265C22.5611 83.6416 22.1674 79.9229 22.1674 76.1114C22.1674 60.4945 28.7259 46.392 39.2528 36.3997C41.4182 37.6771 43.6562 39.4077 45.3969 41.7152C50.2666 48.1741 49.2926 50.7598 63.5909 58.187C77.8788 65.6143 74.6358 72.7222 63.5909 74.6589Z" fill="url(#paint2_linear_3_91)"/>
<path d="M127.311 52.583C117.116 50.4609 110.164 61.9263 103.222 61.0919C95.0989 60.1236 97.3783 48.174 90.5504 35.5755C87.1312 29.2711 86.8929 24.9033 87.5042 22.1219C105.149 25.3566 119.841 36.9353 127.311 52.583Z" fill="url(#paint3_linear_3_91)"/>
<path d="M132.627 76.1113C132.627 97.4248 120.421 115.895 102.58 125.001C98.5077 118.604 105.108 113.855 112.972 108.9C122.722 102.761 113.625 100.175 115.241 90.1623C116.868 80.1494 110.692 79.5004 113.614 71.1049C115.697 65.1095 126.555 70.7958 132.596 74.5455C132.616 75.0606 132.627 75.5859 132.627 76.1113Z" fill="url(#paint4_linear_3_91)"/>
<path d="M80.8109 92.748C74.9051 94.5713 71.7139 87.5767 64.2435 89.194C56.7732 90.8113 50.598 104.049 60.669 103.729C70.7399 103.41 73.3405 102.112 80.8109 107.283C88.2812 112.454 97.057 108.9 99.6577 100.824C102.248 92.748 100.621 86.6084 80.8109 92.748Z" fill="url(#paint5_linear_3_91)"/>
<path d="M93.151 68.5192C90.0427 69.5082 89.2553 71.1049 90.2292 73.0415C91.2032 74.9782 95.0989 74.6588 97.0468 77.5638C98.9947 80.4688 103.875 84.0227 105.17 77.5638C106.475 71.1049 100.3 66.2529 93.151 68.5192Z" fill="url(#paint6_linear_3_91)"/>
<path opacity="0.5" d="M81.7849 51.7178C81.2047 56.0238 77.2364 51.7178 70.74 50.4301C64.2436 49.1425 61.643 45.2589 64.5648 42.6732C67.4867 40.0876 71.3824 38.151 75.2886 40.407C79.1843 42.6732 82.4273 46.8762 81.7849 51.7178Z" fill="#056DB1"/>
<path d="M74.9569 26.2014C66.8338 26.2014 62.9381 30.7237 55.4678 33.3093C51.0125 34.8442 47.4897 33.0621 45.3657 31.3727C54.4006 24.9652 65.4558 21.1949 77.4021 21.1949C77.8166 21.1949 78.2207 21.1949 78.6247 21.2155C79.1946 23.5436 78.9874 26.2014 74.9569 26.2014Z" fill="url(#paint7_linear_3_91)"/>
<path opacity="0.45" d="M129.995 92.9127C125.488 106.871 115.51 118.398 102.58 125.001C99.5645 126.536 96.394 127.803 93.0992 128.782C88.7994 130.049 84.2819 130.811 79.6091 130.986C78.8734 131.017 78.1378 131.028 77.3918 131.028C56.5557 131.028 38.4031 119.552 29.0057 102.606C26.374 97.8677 24.4261 92.6964 23.2967 87.2264C22.5611 83.6415 22.1674 79.9227 22.1674 76.1112C22.1674 69.4772 23.3485 63.1213 25.514 57.2392C31.7617 75.7919 46.06 99.7322 78.5626 104.172C84.9036 105.037 90.8301 105.151 96.3629 104.677C109.936 103.492 121.105 98.7742 129.995 92.9127Z" fill="url(#paint8_linear_3_91)"/>
<path opacity="0.45" d="M132.627 76.1112C132.627 81.9727 131.705 87.6178 129.995 92.9127C125.488 106.871 115.51 118.398 102.58 125.001C99.5645 126.536 96.3941 127.803 93.0993 128.782C88.7994 130.049 84.282 130.811 79.6092 130.986C78.8735 131.017 78.1379 131.028 77.3919 131.028C56.5558 131.028 38.4032 119.552 29.0057 102.606C38.5586 106.51 49.9351 109.178 63.4252 109.704C76.5112 110.219 87.3696 108.21 96.363 104.667C115.697 97.0641 126.472 82.3538 132.316 70.2394C132.471 71.6507 132.565 73.0929 132.606 74.5351C132.616 75.0605 132.627 75.5858 132.627 76.1112Z" fill="url(#paint9_linear_3_91)"/>
<path d="M131.891 67.118C131.891 67.118 124.027 38.4803 87.867 29.0546C66.1916 23.3992 51.1473 28.4983 42.5787 33.4842C69.9423 11.2745 111.791 20.0925 127.312 52.5829C130.917 60.1131 131.632 66.0673 131.891 67.118Z" fill="url(#paint10_linear_3_91)"/>
</g>
<defs>
<radialGradient id="paint0_radial_3_91" cx="0" cy="0" r="1" gradientUnits="userSpaceOnUse" gradientTransform="translate(77.4742 76.0029) scale(65.9981 65.6176)">
<stop stop-color="#90DD6F"/>
<stop offset="1" stop-color="#B8FFA9" stop-opacity="0"/>
</radialGradient>
<radialGradient id="paint1_radial_3_91" cx="0" cy="0" r="1" gradientUnits="userSpaceOnUse" gradientTransform="translate(80.134 54.6208) scale(67.0302 66.6438)">
<stop stop-color="#00B3DC"/>
<stop offset="1" stop-color="#056DB0"/>
</radialGradient>
<linearGradient id="paint2_linear_3_91" x1="41.1026" y1="-8.55304" x2="53.628" y2="149.406" gradientUnits="userSpaceOnUse">
<stop stop-color="#F2F236"/>
<stop offset="1" stop-color="#F2F236" stop-opacity="0"/>
</linearGradient>
<linearGradient id="paint3_linear_3_91" x1="103.08" y1="-13.4677" x2="115.606" y2="144.491" gradientUnits="userSpaceOnUse">
<stop stop-color="#F2F236"/>
<stop offset="1" stop-color="#F2F236" stop-opacity="0"/>
</linearGradient>
<linearGradient id="paint4_linear_3_91" x1="108.001" y1="-13.8579" x2="120.527" y2="144.101" gradientUnits="userSpaceOnUse">
<stop stop-color="#F2F236"/>
<stop offset="1" stop-color="#F2F236" stop-opacity="0"/>
</linearGradient>
<linearGradient id="paint5_linear_3_91" x1="69.3001" y1="-10.7891" x2="81.8255" y2="147.17" gradientUnits="userSpaceOnUse">
<stop stop-color="#F2F236"/>
<stop offset="1" stop-color="#F2F236" stop-opacity="0"/>
</linearGradient>
<linearGradient id="paint6_linear_3_91" x1="90.6866" y1="-12.4851" x2="103.212" y2="145.474" gradientUnits="userSpaceOnUse">
<stop stop-color="#F2F236"/>
<stop offset="1" stop-color="#F2F236" stop-opacity="0"/>
</linearGradient>
<linearGradient id="paint7_linear_3_91" x1="59.1386" y1="-9.98336" x2="71.664" y2="147.975" gradientUnits="userSpaceOnUse">
<stop stop-color="#F2F236"/>
<stop offset="1" stop-color="#F2F236" stop-opacity="0"/>
</linearGradient>
<linearGradient id="paint8_linear_3_91" x1="68.9965" y1="147.204" x2="77.1866" y2="72.0956" gradientUnits="userSpaceOnUse">
<stop stop-color="#00ACD8"/>
<stop offset="1" stop-color="#0983BD"/>
</linearGradient>
<linearGradient id="paint9_linear_3_91" x1="74.5664" y1="143.975" x2="83.7203" y2="65.4738" gradientUnits="userSpaceOnUse">
<stop stop-color="#056EB1"/>
<stop offset="1" stop-color="#00A9D7" stop-opacity="0.3"/>
</linearGradient>
<linearGradient id="paint10_linear_3_91" x1="117.505" y1="-9.0497" x2="83.0602" y2="59.2676" gradientUnits="userSpaceOnUse">
<stop stop-color="#E2FFB5"/>
<stop offset="1" stop-color="#FFFFB3" stop-opacity="0"/>
</linearGradient>
<clipPath id="clip0_3_91">
<rect width="153" height="152" fill="white" transform="translate(0.977173)"/>
</clipPath>
</defs>
</svg>
